<?xml version="1.0" encoding="UTF-8" standalone="no"?>
<!-- Created with Inkscape (http://www.inkscape.org/) -->

<svg
   width="260.28256mm"
   height="160.21645mm"
   viewBox="0 0 260.28257 160.21645"
   version="1.1"
   id="svg1"
   xml:space="preserve"
   inkscape:version="1.3.2 (091e20e, 2023-11-25, custom)"
   sodipodi:docname="kissing circles.svg"
   inkscape:export-filename="kissing circles 06.svg"
   inkscape:export-xdpi="96"
   inkscape:export-ydpi="96"
   xmlns:inkscape="http://www.inkscape.org/namespaces/inkscape"
   xmlns:sodipodi="http://sodipodi.sourceforge.net/DTD/sodipodi-0.dtd"
   xmlns="http://www.w3.org/2000/svg"
   xmlns:svg="http://www.w3.org/2000/svg"><sodipodi:namedview
   id="namedview1"
   pagecolor="#ffffff"
   bordercolor="#000000"
   borderopacity="0.25"
   inkscape:showpageshadow="2"
   inkscape:pageopacity="0.0"
   inkscape:pagecheckerboard="0"
   inkscape:deskcolor="#d1d1d1"
   inkscape:document-units="mm"
   inkscape:zoom="0.96459612"
   inkscape:cx="292.86869"
   inkscape:cy="350.40572"
   inkscape:window-width="1600"
   inkscape:window-height="1191"
   inkscape:window-x="2391"
   inkscape:window-y="-9"
   inkscape:window-maximized="1"
   inkscape:current-layer="g226"
   showguides="true"><sodipodi:guide
     position="-27.91645,12.879632"
     orientation="0,-1"
     id="guide114"
     inkscape:locked="false" /><sodipodi:guide
     position="-31.793734,147.80914"
     orientation="0,-1"
     id="guide115"
     inkscape:locked="false" /></sodipodi:namedview><defs
   id="defs1"><inkscape:path-effect
     effect="copy_rotate"
     starting_point="186.26074,142.15479"
     origin="171.774,142.15479"
     id="path-effect235"
     is_visible="true"
     lpeversion="1.2"
     lpesatellites=""
     method="normal"
     num_copies="3"
     starting_angle="0"
     rotation_angle="120"
     gap="-0.01"
     copies_to_360="true"
     mirror_copies="false"
     split_items="false"
     link_styles="false" /><inkscape:path-effect
     effect="copy_rotate"
     starting_point="186.26074,142.15479"
     origin="171.774,142.15479"
     id="path-effect227"
     is_visible="true"
     lpeversion="1.2"
     lpesatellites=""
     method="normal"
     num_copies="3"
     starting_angle="0"
     rotation_angle="120"
     gap="-0.01"
     copies_to_360="true"
     mirror_copies="false"
     split_items="false"
     link_styles="false" /><rect
     x="268.37988"
     y="222.78639"
     width="215.91579"
     height="39.540676"
     id="rect4" /><inkscape:path-effect
     effect="copy_rotate"
     starting_point="186.26074,142.15479"
     origin="171.774,142.15479"
     id="path-effect14"
     is_visible="true"
     lpeversion="1.2"
     lpesatellites=""
     method="normal"
     num_copies="3"
     starting_angle="0"
     rotation_angle="120"
     gap="-0.01"
     copies_to_360="true"
     mirror_copies="false"
     split_items="false"
     link_styles="false" /><rect
     x="120.20103"
     y="284.95935"
     width="397.60312"
     height="285.57626"
     id="rect11-7-4" /><rect
     x="120.20103"
     y="284.95935"
     width="383.39984"
     height="297.63913"
     id="rect11-7-4-9" /><rect
     x="120.20103"
     y="284.95935"
     width="410.03772"
     height="289.7211"
     id="rect11-7-4-1" /><inkscape:path-effect
     effect="copy_rotate"
     starting_point="186.26074,142.15479"
     origin="171.774,142.15479"
     id="path-effect14-8"
     is_visible="true"
     lpeversion="1.2"
     lpesatellites=""
     method="normal"
     num_copies="3"
     starting_angle="0"
     rotation_angle="120"
     gap="-0.01"
     copies_to_360="true"
     mirror_copies="false"
     split_items="false"
     link_styles="false" /><inkscape:path-effect
     effect="copy_rotate"
     starting_point="186.26074,142.15479"
     origin="171.774,142.15479"
     id="path-effect14-1"
     is_visible="true"
     lpeversion="1.2"
     lpesatellites=""
     method="normal"
     num_copies="3"
     starting_angle="0"
     rotation_angle="120"
     gap="-0.01"
     copies_to_360="true"
     mirror_copies="false"
     split_items="false"
     link_styles="false" /><rect
     x="120.20103"
     y="284.95935"
     width="397.60312"
     height="285.57626"
     id="rect11-7-4-18" /><inkscape:path-effect
     effect="copy_rotate"
     starting_point="186.26074,142.15479"
     origin="171.774,142.15479"
     id="path-effect14-5-1"
     is_visible="true"
     lpeversion="1.2"
     lpesatellites=""
     method="normal"
     num_copies="3"
     starting_angle="0"
     rotation_angle="120"
     gap="-0.01"
     copies_to_360="true"
     mirror_copies="false"
     split_items="false"
     link_styles="false" /><rect
     x="120.20103"
     y="284.95935"
     width="400.71176"
     height="423.95374"
     id="rect11-7-4-8-8" /><rect
     x="120.20103"
     y="284.95935"
     width="400.71176"
     height="423.95374"
     id="rect199" /><rect
     x="120.20103"
     y="284.95935"
     width="400.71176"
     height="423.95374"
     id="rect199-4" /><clipPath
     clipPathUnits="userSpaceOnUse"
     id="clipPath269"><path
       style="display:inline;opacity:0.909879;fill:#1a1a1a;stroke:#000000;stroke-width:1.84368;stroke-opacity:1"
       id="path269"
       sodipodi:type="arc"
       sodipodi:cx="-163.68202"
       sodipodi:cy="-84.215729"
       sodipodi:rx="67.817451"
       sodipodi:ry="66.588661"
       sodipodi:start="1.5359337"
       sodipodi:end="3.325536"
       sodipodi:arc-type="slice"
       inkscape:label="outerClip"
       transform="rotate(179.39082)"
       d="m -161.31821,-17.667529 a 67.817451,66.588661 0 0 1 -53.75604,-23.10016 67.817451,66.588661 0 0 1 -15.28115,-55.627626 l 66.67338,12.179586 z" /></clipPath><clipPath
     clipPathUnits="userSpaceOnUse"
     id="clipPath270"><path
       style="display:inline;opacity:0.909879;fill:#1a1a1a;stroke:#000000;stroke-width:1.84368;stroke-opacity:1"
       id="path270"
       sodipodi:type="arc"
       sodipodi:cx="-136.57042"
       sodipodi:cy="-97.256119"
       sodipodi:rx="74.396561"
       sodipodi:ry="65.714645"
       sodipodi:start="1.5359337"
       sodipodi:end="3.325536"
       sodipodi:arc-type="slice"
       inkscape:label="outerClip"
       transform="matrix(-0.9999235,0.01236876,-0.00870137,-0.99996214,0,0)"
       d="m -133.97729,-31.581404 a 74.396561,65.714645 0 0 1 -58.97103,-22.796956 74.396561,65.714645 0 0 1 -16.7636,-54.89748 l 73.1415,12.019721 z" /></clipPath><clipPath
     clipPathUnits="userSpaceOnUse"
     id="clipPath271"><path
       style="display:inline;opacity:0.909879;fill:#1a1a1a;stroke:#000000;stroke-width:1.84368;stroke-opacity:1"
       id="path271"
       sodipodi:type="arc"
       sodipodi:cx="-167.88962"
       sodipodi:cy="-81.165977"
       sodipodi:rx="60.148113"
       sodipodi:ry="56.505054"
       sodipodi:start="1.5359337"
       sodipodi:end="3.325536"
       sodipodi:arc-type="slice"
       inkscape:label="outerClip"
       transform="matrix(-0.99993525,0.01137987,-0.00985033,-0.99995148,0,0)"
       d="m -165.79312,-24.695258 a 60.148113,56.505054 0 0 1 -47.67689,-19.602072 60.148113,56.505054 0 0 1 -13.55303,-47.203863 l 59.13342,10.335216 z" /></clipPath><clipPath
     clipPathUnits="userSpaceOnUse"
     id="clipPath272"><path
       style="display:inline;opacity:0.909879;fill:#1a1a1a;stroke:#000000;stroke-width:1.84368;stroke-opacity:1"
       id="path272"
       sodipodi:type="arc"
       sodipodi:cx="-162.2386"
       sodipodi:cy="-147.04181"
       sodipodi:rx="60.78278"
       sodipodi:ry="59.407276"
       sodipodi:start="1.5359337"
       sodipodi:end="3.325536"
       sodipodi:arc-type="slice"
       inkscape:label="outerClip"
       transform="matrix(-0.99992994,0.01183694,-0.00947032,-0.99995516,0,0)"
       d="m -160.11998,-87.670631 c -18.42689,0.628126 -36.1494,-6.952641 -48.17996,-20.608879 -12.03056,-13.65623 -17.06851,-31.91152 -13.69604,-49.62835 l 59.75738,10.86605 z M 138.68634,544.49612 c 9.75742,15.64409 12.05353,34.78262 6.24217,52.02951 -5.81137,17.24689 -19.10194,30.73752 -36.1314,36.67529 L 88.328699,576.01649 Z m 398.0693,-574.857241 c 8.66947,-16.272214 24.09587,-27.829976 41.9378,-31.420628 17.84192,-3.590652 36.17044,1.174 49.82743,12.95306 L 589.2319,-2.5103087 Z" /></clipPath><clipPath
     clipPathUnits="userSpaceOnUse"
     id="clipPath273"><path
       style="display:inline;opacity:0.909879;fill:#1a1a1a;stroke:#000000;stroke-width:1.84368;stroke-opacity:1"
       id="path273"
       sodipodi:type="arc"
       sodipodi:cx="-168.55867"
       sodipodi:cy="-80.786766"
       sodipodi:rx="59.391022"
       sodipodi:ry="55.798717"
       sodipodi:start="1.5359337"
       sodipodi:end="3.325536"
       sodipodi:arc-type="slice"
       inkscape:label="outerClip"
       transform="matrix(-0.99993526,0.01137841,-0.00985192,-0.99995147,0,0)"
       d="m -166.48856,-25.021954 a 59.391022,55.798717 0 0 1 -47.07677,-19.357039 59.391022,55.798717 0 0 1 -13.38244,-46.613794 l 58.3891,10.206021 z" /></clipPath><clipPath
     clipPathUnits="userSpaceOnUse"
     id="clipPath274"><path
       style="display:inline;opacity:0.909879;fill:#1a1a1a;stroke:#000000;stroke-width:1.84368;stroke-opacity:1"
       id="path274"
       sodipodi:type="arc"
       sodipodi:cx="-168.55867"
       sodipodi:cy="-80.786766"
       sodipodi:rx="59.391022"
       sodipodi:ry="55.798717"
       sodipodi:start="1.5359337"
       sodipodi:end="3.325536"
       sodipodi:arc-type="slice"
       inkscape:label="outerClip"
       transform="matrix(-0.99993526,0.01137841,-0.00985192,-0.99995147,0,0)"
       d="m -166.48856,-25.021954 a 59.391022,55.798717 0 0 1 -47.07677,-19.357039 59.391022,55.798717 0 0 1 -13.38244,-46.613794 l 58.3891,10.206021 z" /></clipPath><rect
     x="120.20103"
     y="284.95935"
     width="406.57623"
     height="451.81003"
     id="rect199-4-4" /><clipPath
     clipPathUnits="userSpaceOnUse"
     id="clipPath294"><path
       style="display:inline;opacity:0.909879;fill:#1a1a1a;stroke:#000000;stroke-width:1.84368;stroke-opacity:1"
       id="path294"
       sodipodi:type="arc"
       sodipodi:cx="-163.68202"
       sodipodi:cy="-84.215729"
       sodipodi:rx="67.817451"
       sodipodi:ry="66.588661"
       sodipodi:start="1.5359337"
       sodipodi:end="3.325536"
       sodipodi:arc-type="slice"
       inkscape:label="outerClip"
       transform="rotate(179.39082)"
       d="m -161.31821,-17.667529 a 67.817451,66.588661 0 0 1 -53.75604,-23.10016 67.817451,66.588661 0 0 1 -15.28115,-55.627626 l 66.67338,12.179586 z" /></clipPath><clipPath
     clipPathUnits="userSpaceOnUse"
     id="clipPath295"><path
       style="display:inline;opacity:0.909879;fill:#1a1a1a;stroke:#000000;stroke-width:1.84368;stroke-opacity:1"
       id="path295"
       sodipodi:type="arc"
       sodipodi:cx="-136.57042"
       sodipodi:cy="-97.256119"
       sodipodi:rx="74.396561"
       sodipodi:ry="65.714645"
       sodipodi:start="1.5359337"
       sodipodi:end="3.325536"
       sodipodi:arc-type="slice"
       inkscape:label="outerClip"
       transform="matrix(-0.9999235,0.01236876,-0.00870137,-0.99996214,0,0)"
       d="m -133.97729,-31.581404 a 74.396561,65.714645 0 0 1 -58.97103,-22.796956 74.396561,65.714645 0 0 1 -16.7636,-54.89748 l 73.1415,12.019721 z" /></clipPath><clipPath
     clipPathUnits="userSpaceOnUse"
     id="clipPath296"><path
       style="display:inline;opacity:0.909879;fill:#1a1a1a;stroke:#000000;stroke-width:1.84368;stroke-opacity:1"
       id="path296"
       sodipodi:type="arc"
       sodipodi:cx="-167.88962"
       sodipodi:cy="-81.165977"
       sodipodi:rx="60.148113"
       sodipodi:ry="56.505054"
       sodipodi:start="1.5359337"
       sodipodi:end="3.325536"
       sodipodi:arc-type="slice"
       inkscape:label="outerClip"
       transform="matrix(-0.99993525,0.01137987,-0.00985033,-0.99995148,0,0)"
       d="m -165.79312,-24.695258 a 60.148113,56.505054 0 0 1 -47.67689,-19.602072 60.148113,56.505054 0 0 1 -13.55303,-47.203863 l 59.13342,10.335216 z" /></clipPath><clipPath
     clipPathUnits="userSpaceOnUse"
     id="clipPath297"><path
       style="display:inline;opacity:0.909879;fill:#1a1a1a;stroke:#000000;stroke-width:1.84368;stroke-opacity:1"
       id="path297"
       sodipodi:type="arc"
       sodipodi:cx="-162.2386"
       sodipodi:cy="-147.04181"
       sodipodi:rx="60.78278"
       sodipodi:ry="59.407276"
       sodipodi:start="1.5359337"
       sodipodi:end="3.325536"
       sodipodi:arc-type="slice"
       inkscape:label="outerClip"
       transform="matrix(-0.99992994,0.01183694,-0.00947032,-0.99995516,0,0)"
       d="m -160.11998,-87.670631 c -18.42689,0.628126 -36.1494,-6.952641 -48.17996,-20.608879 -12.03056,-13.65623 -17.06851,-31.91152 -13.69604,-49.62835 l 59.75738,10.86605 z M 138.68634,544.49612 c 9.75742,15.64409 12.05353,34.78262 6.24217,52.02951 -5.81137,17.24689 -19.10194,30.73752 -36.1314,36.67529 L 88.328699,576.01649 Z m 398.0693,-574.857241 c 8.66947,-16.272214 24.09587,-27.829976 41.9378,-31.420628 17.84192,-3.590652 36.17044,1.174 49.82743,12.95306 L 589.2319,-2.5103087 Z" /></clipPath><clipPath
     clipPathUnits="userSpaceOnUse"
     id="clipPath298"><path
       style="display:inline;opacity:0.909879;fill:#1a1a1a;stroke:#000000;stroke-width:1.84368;stroke-opacity:1"
       id="path298"
       sodipodi:type="arc"
       sodipodi:cx="-168.55867"
       sodipodi:cy="-80.786766"
       sodipodi:rx="59.391022"
       sodipodi:ry="55.798717"
       sodipodi:start="1.5359337"
       sodipodi:end="3.325536"
       sodipodi:arc-type="slice"
       inkscape:label="outerClip"
       transform="matrix(-0.99993526,0.01137841,-0.00985192,-0.99995147,0,0)"
       d="m -166.48856,-25.021954 a 59.391022,55.798717 0 0 1 -47.07677,-19.357039 59.391022,55.798717 0 0 1 -13.38244,-46.613794 l 58.3891,10.206021 z" /></clipPath><clipPath
     clipPathUnits="userSpaceOnUse"
     id="clipPath299"><path
       style="display:inline;opacity:0.909879;fill:#1a1a1a;stroke:#000000;stroke-width:1.84368;stroke-opacity:1"
       id="path299"
       sodipodi:type="arc"
       sodipodi:cx="-168.55867"
       sodipodi:cy="-80.786766"
       sodipodi:rx="59.391022"
       sodipodi:ry="55.798717"
       sodipodi:start="1.5359337"
       sodipodi:end="3.325536"
       sodipodi:arc-type="slice"
       inkscape:label="outerClip"
       transform="matrix(-0.99993526,0.01137841,-0.00985192,-0.99995147,0,0)"
       d="m -166.48856,-25.021954 a 59.391022,55.798717 0 0 1 -47.07677,-19.357039 59.391022,55.798717 0 0 1 -13.38244,-46.613794 l 58.3891,10.206021 z" /></clipPath></defs><rect
   style="display:inline;opacity:0.909879;fill:#666666;stroke:none;stroke-width:0.600001;stroke-linecap:round;stroke-linejoin:round"
   id="rect133"
   width="260.28256"
   height="160.21645"
   x="0"
   y="0"
   ry="0.29232603"
   inkscape:label="background" /><g
   inkscape:groupmode="layer"
   id="g226"
   inkscape:label="Layer 7"
   style="display:inline"><path
     style="display:inline;opacity:0.909879;fill:#e6e6e6;stroke:#000000;stroke-width:1.36863;stroke-opacity:1"
     id="path219"
     sodipodi:type="arc"
     sodipodi:cx="177.31137"
     sodipodi:cy="76.669899"
     sodipodi:rx="50.343254"
     sodipodi:ry="49.43108"
     sodipodi:start="5.1484185"
     sodipodi:end="5.142296"
     sodipodi:open="true"
     sodipodi:arc-type="arc"
     inkscape:label="outerC"
     clip-path="url(#clipPath299)"
     transform="matrix(1.5681059,0.04380117,-0.04380117,1.5681059,-115.2748,-25.887017)"
     d="M 198.57353,31.863803 A 50.343254,49.43108 0 0 1 222.97679,97.478204 50.343254,49.43108 0 0 1 156.189,121.53969 50.343254,49.43108 0 0 1 131.5813,55.998951 50.343254,49.43108 0 0 1 198.29375,31.736825" /><path
     style="display:inline;opacity:0.909879;fill:#cccccc;stroke:#000000;stroke-width:0.934823;stroke-opacity:1"
     id="path220"
     sodipodi:type="arc"
     sodipodi:cx="200.63597"
     sodipodi:cy="62.640224"
     sodipodi:rx="22.853041"
     sodipodi:ry="23.066622"
     sodipodi:start="5.1484185"
     sodipodi:end="5.142296"
     sodipodi:open="true"
     sodipodi:arc-type="arc"
     inkscape:label="innerC01"
     clip-path="url(#clipPath298)"
     transform="matrix(1.5681059,0.04380117,-0.04380117,1.5681059,-115.2748,-25.887017)"
     d="m 210.28781,41.731815 a 22.853041,23.066622 0 0 1 11.07772,30.61844 22.853041,23.066622 0 0 1 -30.31794,11.228104 22.853041,23.066622 0 0 1 -11.17053,-30.584068 22.853041,23.066622 0 0 1 30.28374,-11.32173" /><path
     style="display:inline;opacity:0.909879;fill:#d35f5f;stroke:#000000;stroke-width:0.600001;stroke-opacity:1"
     d="M 171.774,142.15481 V 90.06334 m 2e-5,52.09144 -45.11254,26.04573 m 45.1125,-26.04573 45.11254,26.04573"
     id="path221"
     inkscape:path-effect="#path-effect227"
     inkscape:original-d="m 171.774,142.15481 c 0,-52.09147 0,-52.09147 0,-52.09147"
     transform="matrix(1.5322088,0.0427985,-0.04114047,1.4728494,-97.909929,-115.53595)"
     inkscape:label="threeparts"
     clip-path="url(#clipPath297)" /><path
     style="display:inline;opacity:0.909879;fill:none;stroke:#000000;stroke-width:0.934823;stroke-linecap:round;stroke-opacity:1"
     d="M 177.31125,76.084754 C 200.63582,62.622482 200.63582,62.622482 200.63582,62.622482"
     id="path222"
     inkscape:label="isoSide02"
     clip-path="url(#clipPath296)"
     transform="matrix(1.548368,0.04325364,-0.04324984,1.5485039,-110.92877,-24.818196)" /><path
     style="display:none;opacity:0.909879;fill:none;stroke:#000000;stroke-width:0.934823;stroke-linecap:round;stroke-opacity:1"
     d="M 177.31125,76.084754 C 200.63582,62.622482 200.63582,62.622482 200.63582,62.622482"
     id="path223"
     inkscape:label="radius02"
     clip-path="url(#clipPath295)"
     transform="matrix(1.2518043,0.03719265,-0.03496606,1.3315171,-21.844622,-27.155604)" /><path
     style="display:inline;opacity:0.909879;fill:none;stroke:#000000;stroke-width:0.934823;stroke-linecap:round;stroke-opacity:1"
     d="m 174.18286,63.245974 26.45296,-0.623492"
     id="path224"
     inkscape:label="isoBase02"
     clip-path="url(#clipPath294)"
     transform="matrix(1.3732836,0.03670318,-0.03835928,1.3139938,-76.015613,-9.2071909)"
     sodipodi:nodetypes="cc" /><g
     id="g198"
     inkscape:label="gtext06"
     style="display:inline"
     transform="translate(-0.27168123,-0.34979017)"><rect
       style="display:inline;opacity:0.909879;fill:#d4aa00;stroke:none;stroke-width:0.604596;stroke-linecap:round;stroke-linejoin:round"
       id="rect197"
       width="113.4754"
       height="69.867668"
       x="5.5426812"
       y="45.524178"
       ry="5.9027948"
       inkscape:label="textbg" /><text
       xml:space="preserve"
       transform="matrix(0.26458333,0,0,0.26458333,-21.274253,-27.000347)"
       id="text198"
       style="font-size:32px;font-family:Arial;-inkscape-font-specification:Arial;white-space:pre;shape-inside:url(#rect199);shape-padding:2.07243;display:inline;fill:#b3b3b3;stroke:#000000;stroke-width:0.377953"
       inkscape:label="text06"><tspan
         x="122.27344"
         y="315.85539"
         id="tspan92"><tspan
           style="fill:#666666"
           id="tspan91">But to solve this problem </tspan></tspan><tspan
         x="122.27344"
         y="355.85539"
         id="tspan94"><tspan
           style="fill:#666666"
           id="tspan93">we need just one of the </tspan></tspan><tspan
         x="122.27344"
         y="395.85539"
         id="tspan96"><tspan
           style="fill:#666666"
           id="tspan95">inner circles and the half of </tspan></tspan><tspan
         x="122.27344"
         y="435.85539"
         id="tspan98"><tspan
           style="fill:#666666"
           id="tspan97">the isosceles triangle </tspan></tspan><tspan
         x="122.27344"
         y="475.85539"
         id="tspan100"><tspan
           style="fill:#666666"
           id="tspan99">equals to a rectangular </tspan></tspan><tspan
         x="122.27344"
         y="515.85539"
         id="tspan102"><tspan
   style="fill:#666666"
   id="tspan101">triangle.</tspan>
</tspan><tspan
         x="122.27344"
         y="555.85539"
         id="tspan103">
</tspan></text></g><path
     style="display:inline;opacity:0.82;fill:#000000;stroke:none;stroke-width:0.872;stroke-linecap:round;stroke-linejoin:round;stroke-dasharray:none;stroke-opacity:1"
     d="M 160.56805,80.647518 159.84106,100.3732 195.3899,81.015881 Z"
     id="path225"
     sodipodi:nodetypes="cccc"
     inkscape:label="rectriang01" /><rect
     style="opacity:0.82;fill:#ffffff;stroke:#800000;stroke-width:1.331;stroke-linecap:round;stroke-linejoin:round;stroke-dasharray:none;stroke-opacity:1"
     id="rect257"
     width="5.7574735"
     height="5.7574735"
     x="159.73189"
     y="80.082237"
     ry="0.29232603" /></g></svg>
